<svg width="149" height="200" viewBox="0 0 149 200" fill="none" xmlns="http://www.w3.org/2000/svg">
<path d="M125.592 141.087C114.083 136.967 93.8652 133.851 93.8652 90.9141H75.8433H72.7593H54.7375C54.7375 133.851 34.5202 136.967 23.011 141.087C23.011 170.291 65.4495 171.189 72.7593 173.911V174.859C72.7593 174.859 73.3278 174.743 74.3013 174.44C75.2749 174.743 75.8433 174.859 75.8433 174.859V173.911C83.1532 171.19 125.592 170.291 125.592 141.087Z" fill="#F3D8B6"/>
<path d="M93.8651 90.9146H75.8432H74.353V174.456C75.2939 174.747 75.8432 174.859 75.8432 174.859V173.911C83.1531 171.189 125.592 170.291 125.592 141.087C114.082 136.968 93.8651 133.851 93.8651 90.9146Z" fill="#EEC8A2"/>
<path d="M74.3025 104.579C57.3757 104.579 44.4559 90.3246 38.6664 79.6354C32.877 68.9462 28.8707 30.6534 41.3423 13.7278C53.5549 -2.84695 74.3025 5.19598 74.3025 5.19598C74.3025 5.19598 95.0489 -2.84695 107.262 13.7278C119.733 30.6534 115.725 68.9462 109.935 79.6354C104.144 90.3246 91.2263 104.579 74.3025 104.579Z" fill="#F3DBC4"/>
<path d="M107.263 13.7278C95.3892 -2.38453 75.456 4.76501 74.353 5.17687V104.577C91.2515 104.549 104.15 90.3135 109.935 79.6354C115.725 68.9462 119.733 30.654 107.263 13.7278Z" fill="#EDCEAE"/>
<path d="M118.425 65.029C120.499 59.5564 119.586 54.1373 116.387 52.9251C113.187 51.7129 108.913 55.1665 106.839 60.6391C104.766 66.1117 105.678 71.5308 108.878 72.743C112.077 73.9552 116.352 70.5015 118.425 65.029Z" fill="#EDCEAE"/>
<path d="M30.1734 65.0273C32.2469 70.4998 36.5215 73.9535 39.7209 72.7413C42.9203 71.5291 43.833 66.11 41.7595 60.6374C39.686 55.1648 35.4115 51.7112 32.2121 52.9234C29.0127 54.1356 28.0999 59.5547 30.1734 65.0273Z" fill="#F3DBC4"/>
<path d="M100.193 56.6245H83.121C82.3904 56.6245 81.6684 56.7743 81.0056 57.0641L74.3012 59.452L67.5968 57.0641C66.934 56.7743 66.212 56.6245 65.4814 56.6245H48.4103C45.0137 56.6245 43.8411 62.4657 43.8411 62.4657C43.8411 70.1924 49.5078 76.4565 58.4879 76.4565C63.9641 76.4565 69.2214 70.6363 72.4522 65.9252H76.1515C79.3822 70.6363 84.6402 76.4565 90.1158 76.4565C99.0958 76.4565 104.763 70.1924 104.763 62.4657C104.763 62.4657 103.59 56.6245 100.193 56.6245Z" fill="#A7B8D4"/>
<path d="M100.193 56.6245H83.1211C82.3905 56.6245 81.6685 56.7743 81.0058 57.0641L74.3525 59.4335V65.9252H76.151C79.3818 70.6363 84.6397 76.4565 90.1153 76.4565C99.0954 76.4565 104.762 70.1924 104.762 62.4657C104.762 62.4657 103.59 56.6245 100.193 56.6245Z" fill="#8AA4C2"/>
<path d="M109.071 11.1667C107.739 11.1784 93.3676 3.07692 83.5564 1.08299C71.9862 -1.26854 71.9794 0.756836 67.5137 2.01769C57.134 -5.59612 31.4429 17.2163 31.4429 21.9292C31.4429 44.8107 29.7363 47.0211 32.5003 55.0048C35.2643 62.9885 37.72 69.4364 37.72 69.4364C37.72 69.4364 39.5623 75.4904 39.5623 62.8412C39.5623 28.4111 41.2917 60.6376 101.223 34.1487C113.034 28.9283 106.861 46.4551 108.09 59.0444C109.318 71.6338 109.932 69.4358 109.932 69.4358C109.932 69.4358 112.388 62.9879 115.152 55.0042C117.916 47.0211 121.002 11.0619 109.071 11.1667Z" fill="#A0756F"/>
<path d="M109.071 11.1667C107.739 11.1784 93.3676 3.07689 83.5564 1.08296C79.047 0.166146 76.2978 -0.083558 74.3525 0.0249552V43.4339C81.6679 41.7353 90.5111 38.8832 101.223 34.1487C113.034 28.9283 106.861 46.455 108.089 59.0444C109.317 71.6338 109.931 69.4358 109.931 69.4358C109.931 69.4358 112.388 62.9879 115.151 55.0041C117.916 47.021 121.002 11.0619 109.071 11.1667Z" fill="#8C6762"/>
<path d="M109.478 138.061H39.1245V199.916H109.478V138.061Z" fill="#B7CAE9"/>
<path d="M109.479 138.061H74.353V199.916H109.479V138.061Z" fill="#96B3D4"/>
<path d="M25.0345 131.197C28.7597 128.952 37.1744 126.616 41.5852 125.527C45.2555 124.609 43.7345 134.67 45.0897 147.577C46.4936 160.942 56.9799 200 56.9799 200H0V174.918C0 156.156 10.7138 139.797 25.0345 131.197Z" fill="#367992"/>
<path d="M50.1966 119.564C50.1966 119.564 30.1882 124.805 25.7293 131.048C21.2704 137.29 18.5952 145.762 18.5952 145.762L35.9844 152.004L23.1065 164.547L40.4625 199.916H56.9805C56.9805 199.916 44.5218 155.245 44.2364 139.499C44.1427 134.34 50.1966 119.564 50.1966 119.564Z" fill="#358BA2"/>
<path d="M123.568 131.197C119.843 128.952 111.428 126.616 107.017 125.527C103.347 124.609 104.868 134.67 103.513 147.577C102.109 160.942 91.6228 200 91.6228 200H148.603V174.918C148.603 156.156 137.889 139.798 123.568 131.197Z" fill="#2F697E"/>
<path d="M98.4067 119.564C98.4067 119.564 118.415 124.805 122.874 131.048C127.333 137.29 130.008 145.762 130.008 145.762L112.619 152.004L125.497 164.547L108.141 199.916H91.6228C91.6228 199.916 104.081 155.245 104.366 139.499C104.46 134.34 98.4067 119.564 98.4067 119.564Z" fill="#367992"/>
<path d="M118.425 65.029C120.499 59.5564 119.586 54.1373 116.387 52.9251C113.187 51.7129 108.913 55.1665 106.839 60.6391C104.766 66.1117 105.678 71.5308 108.878 72.743C112.077 73.9552 116.352 70.5015 118.425 65.029Z" fill="#EDCEAE"/>
<path d="M30.1734 65.0273C32.2469 70.4998 36.5215 73.9535 39.7209 72.7413C42.9203 71.5291 43.833 66.11 41.7595 60.6374C39.686 55.1648 35.4115 51.7112 32.2121 52.9234C29.0127 54.1356 28.0999 59.5547 30.1734 65.0273Z" fill="#F3DBC4"/>
</svg>
