<svg width="209" height="129" viewBox="0 0 209 129" fill="none" xmlns="http://www.w3.org/2000/svg">
<path d="M16.9813 80H2.85867V29.9947H31.0187V40.8747L16.9813 40.0213V51.6267H28.5013V62.208L16.9813 61.3547V80ZM34.4837 80V31.744L31.9237 30.208V26.24L45.6197 24.1067H48.393V80H34.4837ZM73.2353 57.9413C73.2353 54.3289 73.0504 51.7689 72.6807 50.2613C72.3109 48.7538 71.6282 48 70.6327 48C69.7793 48 69.0824 48.1564 68.542 48.4693C68.0016 48.7538 67.6033 49.2231 67.3473 49.8773C67.0913 50.5031 66.9207 51.1573 66.8353 51.84C66.7784 52.4942 66.75 53.3333 66.75 54.3573V57.9413H73.2353ZM69.822 80.896C66.6362 80.896 63.8629 80.4124 61.502 79.4453C59.1696 78.4782 57.3207 77.1271 55.9553 75.392C54.6184 73.6569 53.6371 71.7084 53.0113 69.5467C52.3856 67.3564 52.0727 64.9244 52.0727 62.2507C52.0727 55.8791 53.694 51.0578 56.9367 47.7867C60.1793 44.5156 64.7162 42.88 70.5473 42.88C76.1509 42.88 80.1616 44.2027 82.5793 46.848C84.9971 49.4649 86.206 53.6889 86.206 59.52V64.256H66.7073V65.0667C66.7073 66.7449 66.878 68.1244 67.2193 69.2053C67.5891 70.2862 68.1153 71.0827 68.798 71.5947C69.4807 72.1067 70.1776 72.448 70.8887 72.6187C71.5998 72.7893 72.4673 72.8747 73.4913 72.8747C74.4869 72.8747 75.5536 72.7467 76.6913 72.4907C77.8576 72.2347 79.0238 71.8364 80.19 71.296C81.3847 70.7556 82.3802 70.1156 83.1767 69.376L85.694 73.6853C84.6416 75.392 83.0913 76.8284 81.0433 77.9947C79.0238 79.1324 77.0753 79.9004 75.198 80.2987C73.3207 80.6969 71.5287 80.896 69.822 80.896ZM100.812 80.896C96.972 80.896 94.284 79.744 92.748 77.44C91.2404 75.136 90.4867 71.2391 90.4867 65.7493V51.2427H87.5427V45.312L92.5773 43.7333L96.9293 33.792H104.439V43.7333H111.436V51.2427H104.311V67.1147C104.311 69.3902 104.638 70.8978 105.292 71.6373C105.946 72.3769 106.956 72.7467 108.321 72.7467C108.919 72.7467 109.459 72.6756 109.943 72.5333C110.426 72.3911 110.824 72.192 111.137 71.936V77.7387C110.711 78.1653 110.156 78.592 109.473 79.0187C108.791 79.4169 107.653 79.8293 106.06 80.256C104.496 80.6827 102.746 80.896 100.812 80.896ZM128.984 80H115.203V52.3947L112.643 50.816V46.2507L121.816 43.7333H129.07V49.2373L129.582 48.5973C129.923 48.1422 130.421 47.6018 131.075 46.976C131.758 46.3502 132.511 45.7387 133.336 45.1413C134.161 44.5156 135.143 43.9893 136.28 43.5627C137.447 43.1076 138.584 42.88 139.694 42.88C143.591 42.88 146.335 43.9467 147.928 46.08C149.55 48.2133 150.36 51.7831 150.36 56.7893C150.36 56.96 150.36 57.216 150.36 57.5573C150.332 57.8987 150.318 58.1689 150.318 58.368V80H136.238V57.1307C136.323 54.4569 135.185 53.12 132.824 53.12C132.654 53.12 132.483 53.1342 132.312 53.1627C132.17 53.1911 132.028 53.2196 131.886 53.248C131.772 53.2764 131.63 53.3333 131.459 53.4187C131.317 53.4756 131.189 53.5324 131.075 53.5893C130.961 53.6178 130.833 53.6889 130.691 53.8027C130.549 53.888 130.435 53.9591 130.35 54.016C130.264 54.0729 130.136 54.1724 129.966 54.3147C129.823 54.4284 129.71 54.5138 129.624 54.5707C129.567 54.6276 129.454 54.7271 129.283 54.8693C129.141 54.9831 129.041 55.0684 128.984 55.1253V80ZM155.703 80V52.3947L153.143 50.816V46.2507L162.316 43.7333H169.442V80H155.703ZM161.89 39.808L154.892 32.768V31.2747L161.89 24.2773H163.511L170.807 31.2747V32.768L163.511 39.808H161.89ZM183.349 80H171.744L181.003 62.208L171.104 43.7333H187.531L191.285 53.376L195.723 43.7333H207.371L197.813 61.056L207.968 80H191.797L187.531 69.888L183.349 80Z" fill="#FCDDEC"/>
<path d="M17.9813 79H3.85867V28.9947H32.0187V39.8747L17.9813 39.0213V50.6267H29.5013V61.208L17.9813 60.3547V79ZM35.4837 79V30.744L32.9237 29.208V25.24L46.6197 23.1067H49.393V79H35.4837ZM74.2353 56.9413C74.2353 53.3289 74.0504 50.7689 73.6807 49.2613C73.3109 47.7538 72.6282 47 71.6327 47C70.7793 47 70.0824 47.1564 69.542 47.4693C69.0016 47.7538 68.6033 48.2231 68.3473 48.8773C68.0913 49.5031 67.9207 50.1573 67.8353 50.84C67.7784 51.4942 67.75 52.3333 67.75 53.3573V56.9413H74.2353ZM70.822 79.896C67.6362 79.896 64.8629 79.4124 62.502 78.4453C60.1696 77.4782 58.3207 76.1271 56.9553 74.392C55.6184 72.6569 54.6371 70.7084 54.0113 68.5467C53.3856 66.3564 53.0727 63.9244 53.0727 61.2507C53.0727 54.8791 54.694 50.0578 57.9367 46.7867C61.1793 43.5156 65.7162 41.88 71.5473 41.88C77.1509 41.88 81.1616 43.2027 83.5793 45.848C85.9971 48.4649 87.206 52.6889 87.206 58.52V63.256H67.7073V64.0667C67.7073 65.7449 67.878 67.1244 68.2193 68.2053C68.5891 69.2862 69.1153 70.0827 69.798 70.5947C70.4807 71.1067 71.1776 71.448 71.8887 71.6187C72.5998 71.7893 73.4673 71.8747 74.4913 71.8747C75.4869 71.8747 76.5536 71.7467 77.6913 71.4907C78.8576 71.2347 80.0238 70.8364 81.19 70.296C82.3847 69.7556 83.3802 69.1156 84.1767 68.376L86.694 72.6853C85.6416 74.392 84.0913 75.8284 82.0433 76.9947C80.0238 78.1324 78.0753 78.9004 76.198 79.2987C74.3207 79.6969 72.5287 79.896 70.822 79.896ZM101.812 79.896C97.972 79.896 95.284 78.744 93.748 76.44C92.2404 74.136 91.4867 70.2391 91.4867 64.7493V50.2427H88.5427V44.312L93.5773 42.7333L97.9293 32.792H105.439V42.7333H112.436V50.2427H105.311V66.1147C105.311 68.3902 105.638 69.8978 106.292 70.6373C106.946 71.3769 107.956 71.7467 109.321 71.7467C109.919 71.7467 110.459 71.6756 110.943 71.5333C111.426 71.3911 111.824 71.192 112.137 70.936V76.7387C111.711 77.1653 111.156 77.592 110.473 78.0187C109.791 78.4169 108.653 78.8293 107.06 79.256C105.496 79.6827 103.746 79.896 101.812 79.896ZM129.984 79H116.203V51.3947L113.643 49.816V45.2507L122.816 42.7333H130.07V48.2373L130.582 47.5973C130.923 47.1422 131.421 46.6018 132.075 45.976C132.758 45.3502 133.511 44.7387 134.336 44.1413C135.161 43.5156 136.143 42.9893 137.28 42.5627C138.447 42.1076 139.584 41.88 140.694 41.88C144.591 41.88 147.335 42.9467 148.928 45.08C150.55 47.2133 151.36 50.7831 151.36 55.7893C151.36 55.96 151.36 56.216 151.36 56.5573C151.332 56.8987 151.318 57.1689 151.318 57.368V79H137.238V56.1307C137.323 53.4569 136.185 52.12 133.824 52.12C133.654 52.12 133.483 52.1342 133.312 52.1627C133.17 52.1911 133.028 52.2196 132.886 52.248C132.772 52.2764 132.63 52.3333 132.459 52.4187C132.317 52.4756 132.189 52.5324 132.075 52.5893C131.961 52.6178 131.833 52.6889 131.691 52.8027C131.549 52.888 131.435 52.9591 131.35 53.016C131.264 53.0729 131.136 53.1724 130.966 53.3147C130.823 53.4284 130.71 53.5138 130.624 53.5707C130.567 53.6276 130.454 53.7271 130.283 53.8693C130.141 53.9831 130.041 54.0684 129.984 54.1253V79ZM156.703 79V51.3947L154.143 49.816V45.2507L163.316 42.7333H170.442V79H156.703ZM162.89 38.808L155.892 31.768V30.2747L162.89 23.2773H164.511L171.807 30.2747V31.768L164.511 38.808H162.89ZM184.349 79H172.744L182.003 61.208L172.104 42.7333H188.531L192.285 52.376L196.723 42.7333H208.371L198.813 60.056L208.968 79H192.797L188.531 68.888L184.349 79Z" fill="#EF5DA8"/>
</svg>
